<mxfile host="Electron" agent="Mozilla/5.0 (Windows NT 10.0; Win64; x64) AppleWebKit/537.36 (KHTML, like Gecko) draw.io/24.7.5 Chrome/126.0.6478.183 Electron/31.3.0 Safari/537.36" version="24.7.5" pages="6">
  <diagram name="Scheme-0_initial" id="-H_mtQnk-PTXWXPvYvuk">
    <mxGraphModel dx="1050" dy="621" grid="1" gridSize="10" guides="1" tooltips="1" connect="1" arrows="1" fold="1" page="1" pageScale="1" pageWidth="1169" pageHeight="827" math="0" shadow="0">
      <root>
        <mxCell id="0" />
        <mxCell id="1" parent="0" />
        <mxCell id="zA23MoTUsTF4_91t8viU-2" value="MongoDB" style="shape=cylinder3;whiteSpace=wrap;html=1;boundedLbl=1;backgroundOutline=1;size=15;" parent="1" vertex="1">
          <mxGeometry x="560" y="280" width="60" height="80" as="geometry" />
        </mxCell>
        <mxCell id="zA23MoTUsTF4_91t8viU-3" value="pymongo-api" style="rounded=1;whiteSpace=wrap;html=1;" parent="1" vertex="1">
          <mxGeometry x="360" y="290" width="120" height="60" as="geometry" />
        </mxCell>
        <mxCell id="zA23MoTUsTF4_91t8viU-4" style="edgeStyle=orthogonalEdgeStyle;rounded=0;orthogonalLoop=1;jettySize=auto;html=1;exitX=1;exitY=0.5;exitDx=0;exitDy=0;entryX=0;entryY=0.5;entryDx=0;entryDy=0;entryPerimeter=0;" parent="1" source="zA23MoTUsTF4_91t8viU-3" target="zA23MoTUsTF4_91t8viU-2" edge="1">
          <mxGeometry relative="1" as="geometry" />
        </mxCell>
      </root>
    </mxGraphModel>
  </diagram>
  <diagram id="g0GgrveCquBQ_Fdk9vaU" name="Scheme-1_sharding">
    <mxGraphModel dx="1050" dy="621" grid="1" gridSize="10" guides="1" tooltips="1" connect="1" arrows="1" fold="1" page="1" pageScale="1" pageWidth="827" pageHeight="1169" math="0" shadow="0">
      <root>
        <mxCell id="0" />
        <mxCell id="1" parent="0" />
        <mxCell id="fN2Sa8RQeCh7vVCKULAI-11" style="edgeStyle=orthogonalEdgeStyle;rounded=0;orthogonalLoop=1;jettySize=auto;html=1;exitX=0.5;exitY=1;exitDx=0;exitDy=0;exitPerimeter=0;entryX=0.5;entryY=1;entryDx=0;entryDy=0;" edge="1" parent="1" source="fN2Sa8RQeCh7vVCKULAI-1" target="fN2Sa8RQeCh7vVCKULAI-6">
          <mxGeometry relative="1" as="geometry" />
        </mxCell>
        <mxCell id="fN2Sa8RQeCh7vVCKULAI-1" value="shard1" style="shape=cylinder3;whiteSpace=wrap;html=1;boundedLbl=1;backgroundOutline=1;size=15;" vertex="1" parent="1">
          <mxGeometry x="280" y="360" width="60" height="80" as="geometry" />
        </mxCell>
        <mxCell id="fN2Sa8RQeCh7vVCKULAI-2" value="pymongo-api" style="rounded=1;whiteSpace=wrap;html=1;" vertex="1" parent="1">
          <mxGeometry x="360" y="150" width="120" height="60" as="geometry" />
        </mxCell>
        <mxCell id="fN2Sa8RQeCh7vVCKULAI-3" style="edgeStyle=orthogonalEdgeStyle;rounded=0;orthogonalLoop=1;jettySize=auto;html=1;exitX=0.5;exitY=1;exitDx=0;exitDy=0;entryX=0.5;entryY=0;entryDx=0;entryDy=0;" edge="1" parent="1" source="fN2Sa8RQeCh7vVCKULAI-2" target="fN2Sa8RQeCh7vVCKULAI-5">
          <mxGeometry relative="1" as="geometry" />
        </mxCell>
        <mxCell id="fN2Sa8RQeCh7vVCKULAI-10" style="edgeStyle=orthogonalEdgeStyle;rounded=0;orthogonalLoop=1;jettySize=auto;html=1;exitX=1;exitY=0.5;exitDx=0;exitDy=0;entryX=0;entryY=0.5;entryDx=0;entryDy=0;" edge="1" parent="1" source="fN2Sa8RQeCh7vVCKULAI-5" target="fN2Sa8RQeCh7vVCKULAI-6">
          <mxGeometry relative="1" as="geometry" />
        </mxCell>
        <mxCell id="fN2Sa8RQeCh7vVCKULAI-5" value="mongos_router" style="rounded=0;whiteSpace=wrap;html=1;" vertex="1" parent="1">
          <mxGeometry x="360" y="240" width="120" height="60" as="geometry" />
        </mxCell>
        <mxCell id="fN2Sa8RQeCh7vVCKULAI-6" value="configSrv" style="rounded=0;whiteSpace=wrap;html=1;" vertex="1" parent="1">
          <mxGeometry x="610" y="240" width="120" height="60" as="geometry" />
        </mxCell>
        <mxCell id="fN2Sa8RQeCh7vVCKULAI-12" style="edgeStyle=orthogonalEdgeStyle;rounded=0;orthogonalLoop=1;jettySize=auto;html=1;exitX=0.5;exitY=1;exitDx=0;exitDy=0;exitPerimeter=0;entryX=0.5;entryY=1;entryDx=0;entryDy=0;" edge="1" parent="1" source="fN2Sa8RQeCh7vVCKULAI-7" target="fN2Sa8RQeCh7vVCKULAI-6">
          <mxGeometry relative="1" as="geometry" />
        </mxCell>
        <mxCell id="fN2Sa8RQeCh7vVCKULAI-7" value="shard2" style="shape=cylinder3;whiteSpace=wrap;html=1;boundedLbl=1;backgroundOutline=1;size=15;" vertex="1" parent="1">
          <mxGeometry x="500" y="360" width="60" height="80" as="geometry" />
        </mxCell>
        <mxCell id="fN2Sa8RQeCh7vVCKULAI-8" style="edgeStyle=orthogonalEdgeStyle;rounded=0;orthogonalLoop=1;jettySize=auto;html=1;exitX=0.5;exitY=1;exitDx=0;exitDy=0;entryX=0.5;entryY=0;entryDx=0;entryDy=0;entryPerimeter=0;" edge="1" parent="1" source="fN2Sa8RQeCh7vVCKULAI-5" target="fN2Sa8RQeCh7vVCKULAI-1">
          <mxGeometry relative="1" as="geometry" />
        </mxCell>
        <mxCell id="fN2Sa8RQeCh7vVCKULAI-9" style="edgeStyle=orthogonalEdgeStyle;rounded=0;orthogonalLoop=1;jettySize=auto;html=1;exitX=0.5;exitY=1;exitDx=0;exitDy=0;entryX=0.5;entryY=0;entryDx=0;entryDy=0;entryPerimeter=0;" edge="1" parent="1" source="fN2Sa8RQeCh7vVCKULAI-5" target="fN2Sa8RQeCh7vVCKULAI-7">
          <mxGeometry relative="1" as="geometry" />
        </mxCell>
      </root>
    </mxGraphModel>
  </diagram>
  <diagram id="oCN1Z-cpuf46okr2JzEp" name="Scheme-2_replication">
    <mxGraphModel dx="1050" dy="621" grid="1" gridSize="10" guides="1" tooltips="1" connect="1" arrows="1" fold="1" page="1" pageScale="1" pageWidth="827" pageHeight="1169" math="0" shadow="0">
      <root>
        <mxCell id="0" />
        <mxCell id="1" parent="0" />
        <mxCell id="aBzsL6VINNyFDx74ipzb-1" style="edgeStyle=orthogonalEdgeStyle;rounded=0;orthogonalLoop=1;jettySize=auto;html=1;exitX=0.5;exitY=1;exitDx=0;exitDy=0;entryX=0.5;entryY=1;entryDx=0;entryDy=0;" parent="1" source="aBzsL6VINNyFDx74ipzb-23" target="aBzsL6VINNyFDx74ipzb-7" edge="1">
          <mxGeometry relative="1" as="geometry" />
        </mxCell>
        <mxCell id="aBzsL6VINNyFDx74ipzb-3" value="pymongo-api" style="rounded=1;whiteSpace=wrap;html=1;" parent="1" vertex="1">
          <mxGeometry x="330" y="130" width="120" height="60" as="geometry" />
        </mxCell>
        <mxCell id="aBzsL6VINNyFDx74ipzb-4" style="edgeStyle=orthogonalEdgeStyle;rounded=0;orthogonalLoop=1;jettySize=auto;html=1;exitX=0.5;exitY=1;exitDx=0;exitDy=0;entryX=0.5;entryY=0;entryDx=0;entryDy=0;" parent="1" source="aBzsL6VINNyFDx74ipzb-3" target="aBzsL6VINNyFDx74ipzb-6" edge="1">
          <mxGeometry relative="1" as="geometry" />
        </mxCell>
        <mxCell id="aBzsL6VINNyFDx74ipzb-5" style="edgeStyle=orthogonalEdgeStyle;rounded=0;orthogonalLoop=1;jettySize=auto;html=1;exitX=1;exitY=0.5;exitDx=0;exitDy=0;entryX=0;entryY=0.5;entryDx=0;entryDy=0;" parent="1" source="aBzsL6VINNyFDx74ipzb-6" target="aBzsL6VINNyFDx74ipzb-7" edge="1">
          <mxGeometry relative="1" as="geometry" />
        </mxCell>
        <mxCell id="aBzsL6VINNyFDx74ipzb-6" value="mongos_router" style="rounded=0;whiteSpace=wrap;html=1;" parent="1" vertex="1">
          <mxGeometry x="330" y="220" width="120" height="60" as="geometry" />
        </mxCell>
        <mxCell id="aBzsL6VINNyFDx74ipzb-7" value="configSrv" style="rounded=0;whiteSpace=wrap;html=1;" parent="1" vertex="1">
          <mxGeometry x="615" y="220" width="120" height="60" as="geometry" />
        </mxCell>
        <mxCell id="aBzsL6VINNyFDx74ipzb-8" style="edgeStyle=orthogonalEdgeStyle;rounded=0;orthogonalLoop=1;jettySize=auto;html=1;exitX=0.5;exitY=1;exitDx=0;exitDy=0;entryX=0.5;entryY=1;entryDx=0;entryDy=0;" parent="1" source="aBzsL6VINNyFDx74ipzb-25" target="aBzsL6VINNyFDx74ipzb-7" edge="1">
          <mxGeometry relative="1" as="geometry" />
        </mxCell>
        <mxCell id="aBzsL6VINNyFDx74ipzb-10" style="edgeStyle=orthogonalEdgeStyle;rounded=0;orthogonalLoop=1;jettySize=auto;html=1;exitX=0.5;exitY=1;exitDx=0;exitDy=0;entryX=0.5;entryY=0;entryDx=0;entryDy=0;" parent="1" source="aBzsL6VINNyFDx74ipzb-6" target="aBzsL6VINNyFDx74ipzb-23" edge="1">
          <mxGeometry relative="1" as="geometry">
            <mxPoint x="280" y="340" as="targetPoint" />
          </mxGeometry>
        </mxCell>
        <mxCell id="aBzsL6VINNyFDx74ipzb-11" style="edgeStyle=orthogonalEdgeStyle;rounded=0;orthogonalLoop=1;jettySize=auto;html=1;exitX=0.5;exitY=1;exitDx=0;exitDy=0;entryX=0.5;entryY=0;entryDx=0;entryDy=0;" parent="1" source="aBzsL6VINNyFDx74ipzb-6" target="aBzsL6VINNyFDx74ipzb-25" edge="1">
          <mxGeometry relative="1" as="geometry">
            <mxPoint x="500" y="340" as="targetPoint" />
          </mxGeometry>
        </mxCell>
        <mxCell id="aBzsL6VINNyFDx74ipzb-30" value="" style="group" parent="1" vertex="1" connectable="0">
          <mxGeometry x="110" y="360" width="235" height="235" as="geometry" />
        </mxCell>
        <mxCell id="aBzsL6VINNyFDx74ipzb-23" value="" style="whiteSpace=wrap;html=1;aspect=fixed;" parent="aBzsL6VINNyFDx74ipzb-30" vertex="1">
          <mxGeometry width="235" height="235" as="geometry" />
        </mxCell>
        <mxCell id="aBzsL6VINNyFDx74ipzb-12" value="shard1" style="shape=cylinder3;whiteSpace=wrap;html=1;boundedLbl=1;backgroundOutline=1;size=15;" parent="aBzsL6VINNyFDx74ipzb-30" vertex="1">
          <mxGeometry x="87.5" y="40" width="70" height="80" as="geometry" />
        </mxCell>
        <mxCell id="aBzsL6VINNyFDx74ipzb-13" value="shard1-r2" style="shape=cylinder3;whiteSpace=wrap;html=1;boundedLbl=1;backgroundOutline=1;size=15;" parent="aBzsL6VINNyFDx74ipzb-30" vertex="1">
          <mxGeometry x="37.5" y="130" width="70" height="80" as="geometry" />
        </mxCell>
        <mxCell id="aBzsL6VINNyFDx74ipzb-14" value="shard1-r3" style="shape=cylinder3;whiteSpace=wrap;html=1;boundedLbl=1;backgroundOutline=1;size=15;" parent="aBzsL6VINNyFDx74ipzb-30" vertex="1">
          <mxGeometry x="147.5" y="130" width="70" height="80" as="geometry" />
        </mxCell>
        <mxCell id="aBzsL6VINNyFDx74ipzb-24" value="shard1" style="text;html=1;align=center;verticalAlign=middle;resizable=0;points=[];autosize=1;strokeColor=none;fillColor=none;" parent="aBzsL6VINNyFDx74ipzb-30" vertex="1">
          <mxGeometry width="60" height="30" as="geometry" />
        </mxCell>
        <mxCell id="aBzsL6VINNyFDx74ipzb-31" value="" style="group" parent="1" vertex="1" connectable="0">
          <mxGeometry x="380" y="360" width="235" height="235" as="geometry" />
        </mxCell>
        <mxCell id="aBzsL6VINNyFDx74ipzb-25" value="" style="whiteSpace=wrap;html=1;aspect=fixed;" parent="aBzsL6VINNyFDx74ipzb-31" vertex="1">
          <mxGeometry width="235" height="235" as="geometry" />
        </mxCell>
        <mxCell id="aBzsL6VINNyFDx74ipzb-26" value="shard2" style="shape=cylinder3;whiteSpace=wrap;html=1;boundedLbl=1;backgroundOutline=1;size=15;" parent="aBzsL6VINNyFDx74ipzb-31" vertex="1">
          <mxGeometry x="87.5" y="40" width="70" height="80" as="geometry" />
        </mxCell>
        <mxCell id="aBzsL6VINNyFDx74ipzb-27" value="shard2-r2" style="shape=cylinder3;whiteSpace=wrap;html=1;boundedLbl=1;backgroundOutline=1;size=15;" parent="aBzsL6VINNyFDx74ipzb-31" vertex="1">
          <mxGeometry x="37.5" y="130" width="70" height="80" as="geometry" />
        </mxCell>
        <mxCell id="aBzsL6VINNyFDx74ipzb-28" value="shard2-r3" style="shape=cylinder3;whiteSpace=wrap;html=1;boundedLbl=1;backgroundOutline=1;size=15;" parent="aBzsL6VINNyFDx74ipzb-31" vertex="1">
          <mxGeometry x="147.5" y="130" width="70" height="80" as="geometry" />
        </mxCell>
        <mxCell id="aBzsL6VINNyFDx74ipzb-29" value="shard2" style="text;html=1;align=center;verticalAlign=middle;resizable=0;points=[];autosize=1;strokeColor=none;fillColor=none;" parent="aBzsL6VINNyFDx74ipzb-31" vertex="1">
          <mxGeometry width="60" height="30" as="geometry" />
        </mxCell>
      </root>
    </mxGraphModel>
  </diagram>
  <diagram id="y_f8Lnc7AmP8hRRY68eH" name="Scheme-3_cache">
    <mxGraphModel dx="1050" dy="1790" grid="1" gridSize="10" guides="1" tooltips="1" connect="1" arrows="1" fold="1" page="1" pageScale="1" pageWidth="827" pageHeight="1169" math="0" shadow="0">
      <root>
        <mxCell id="0" />
        <mxCell id="1" parent="0" />
        <mxCell id="TmKwgdFJiJHu7VoSj2Bf-1" style="edgeStyle=orthogonalEdgeStyle;rounded=0;orthogonalLoop=1;jettySize=auto;html=1;exitX=0.5;exitY=1;exitDx=0;exitDy=0;entryX=0.5;entryY=1;entryDx=0;entryDy=0;" parent="1" source="TmKwgdFJiJHu7VoSj2Bf-11" target="TmKwgdFJiJHu7VoSj2Bf-6" edge="1">
          <mxGeometry relative="1" as="geometry" />
        </mxCell>
        <mxCell id="TmKwgdFJiJHu7VoSj2Bf-26" style="edgeStyle=orthogonalEdgeStyle;rounded=0;orthogonalLoop=1;jettySize=auto;html=1;exitX=1;exitY=0.5;exitDx=0;exitDy=0;entryX=0.5;entryY=0;entryDx=0;entryDy=0;startArrow=classic;startFill=1;" parent="1" source="TmKwgdFJiJHu7VoSj2Bf-2" target="TmKwgdFJiJHu7VoSj2Bf-5" edge="1">
          <mxGeometry relative="1" as="geometry" />
        </mxCell>
        <mxCell id="TmKwgdFJiJHu7VoSj2Bf-2" value="pymongo-api" style="rounded=1;whiteSpace=wrap;html=1;" parent="1" vertex="1">
          <mxGeometry x="150" y="-80" width="120" height="60" as="geometry" />
        </mxCell>
        <mxCell id="TmKwgdFJiJHu7VoSj2Bf-3" style="edgeStyle=orthogonalEdgeStyle;rounded=0;orthogonalLoop=1;jettySize=auto;html=1;exitX=0.5;exitY=1;exitDx=0;exitDy=0;entryX=0.5;entryY=0;entryDx=0;entryDy=0;entryPerimeter=0;startArrow=classic;startFill=1;" parent="1" source="TmKwgdFJiJHu7VoSj2Bf-2" target="TmKwgdFJiJHu7VoSj2Bf-22" edge="1">
          <mxGeometry relative="1" as="geometry" />
        </mxCell>
        <mxCell id="TmKwgdFJiJHu7VoSj2Bf-4" style="edgeStyle=orthogonalEdgeStyle;rounded=0;orthogonalLoop=1;jettySize=auto;html=1;exitX=1;exitY=0.5;exitDx=0;exitDy=0;entryX=0;entryY=0.5;entryDx=0;entryDy=0;" parent="1" source="TmKwgdFJiJHu7VoSj2Bf-5" target="TmKwgdFJiJHu7VoSj2Bf-6" edge="1">
          <mxGeometry relative="1" as="geometry" />
        </mxCell>
        <mxCell id="TmKwgdFJiJHu7VoSj2Bf-5" value="mongos_router" style="rounded=0;whiteSpace=wrap;html=1;" parent="1" vertex="1">
          <mxGeometry x="330" y="220" width="120" height="60" as="geometry" />
        </mxCell>
        <mxCell id="TmKwgdFJiJHu7VoSj2Bf-6" value="configSrv" style="rounded=0;whiteSpace=wrap;html=1;" parent="1" vertex="1">
          <mxGeometry x="615" y="220" width="120" height="60" as="geometry" />
        </mxCell>
        <mxCell id="TmKwgdFJiJHu7VoSj2Bf-7" style="edgeStyle=orthogonalEdgeStyle;rounded=0;orthogonalLoop=1;jettySize=auto;html=1;exitX=0.5;exitY=1;exitDx=0;exitDy=0;entryX=0.5;entryY=1;entryDx=0;entryDy=0;" parent="1" source="TmKwgdFJiJHu7VoSj2Bf-17" target="TmKwgdFJiJHu7VoSj2Bf-6" edge="1">
          <mxGeometry relative="1" as="geometry" />
        </mxCell>
        <mxCell id="TmKwgdFJiJHu7VoSj2Bf-8" style="edgeStyle=orthogonalEdgeStyle;rounded=0;orthogonalLoop=1;jettySize=auto;html=1;exitX=0.5;exitY=1;exitDx=0;exitDy=0;entryX=0.5;entryY=0;entryDx=0;entryDy=0;" parent="1" source="TmKwgdFJiJHu7VoSj2Bf-5" target="TmKwgdFJiJHu7VoSj2Bf-11" edge="1">
          <mxGeometry relative="1" as="geometry">
            <mxPoint x="280" y="340" as="targetPoint" />
          </mxGeometry>
        </mxCell>
        <mxCell id="TmKwgdFJiJHu7VoSj2Bf-9" style="edgeStyle=orthogonalEdgeStyle;rounded=0;orthogonalLoop=1;jettySize=auto;html=1;exitX=0.5;exitY=1;exitDx=0;exitDy=0;entryX=0.5;entryY=0;entryDx=0;entryDy=0;" parent="1" source="TmKwgdFJiJHu7VoSj2Bf-5" target="TmKwgdFJiJHu7VoSj2Bf-17" edge="1">
          <mxGeometry relative="1" as="geometry">
            <mxPoint x="500" y="340" as="targetPoint" />
          </mxGeometry>
        </mxCell>
        <mxCell id="TmKwgdFJiJHu7VoSj2Bf-10" value="" style="group" parent="1" vertex="1" connectable="0">
          <mxGeometry x="110" y="360" width="235" height="235" as="geometry" />
        </mxCell>
        <mxCell id="TmKwgdFJiJHu7VoSj2Bf-11" value="" style="whiteSpace=wrap;html=1;aspect=fixed;" parent="TmKwgdFJiJHu7VoSj2Bf-10" vertex="1">
          <mxGeometry width="235" height="235" as="geometry" />
        </mxCell>
        <mxCell id="TmKwgdFJiJHu7VoSj2Bf-12" value="shard1" style="shape=cylinder3;whiteSpace=wrap;html=1;boundedLbl=1;backgroundOutline=1;size=15;" parent="TmKwgdFJiJHu7VoSj2Bf-10" vertex="1">
          <mxGeometry x="87.5" y="40" width="70" height="80" as="geometry" />
        </mxCell>
        <mxCell id="TmKwgdFJiJHu7VoSj2Bf-13" value="shard1-r2" style="shape=cylinder3;whiteSpace=wrap;html=1;boundedLbl=1;backgroundOutline=1;size=15;" parent="TmKwgdFJiJHu7VoSj2Bf-10" vertex="1">
          <mxGeometry x="37.5" y="130" width="70" height="80" as="geometry" />
        </mxCell>
        <mxCell id="TmKwgdFJiJHu7VoSj2Bf-14" value="shard1-r3" style="shape=cylinder3;whiteSpace=wrap;html=1;boundedLbl=1;backgroundOutline=1;size=15;" parent="TmKwgdFJiJHu7VoSj2Bf-10" vertex="1">
          <mxGeometry x="147.5" y="130" width="70" height="80" as="geometry" />
        </mxCell>
        <mxCell id="TmKwgdFJiJHu7VoSj2Bf-15" value="shard1" style="text;html=1;align=center;verticalAlign=middle;resizable=0;points=[];autosize=1;strokeColor=none;fillColor=none;" parent="TmKwgdFJiJHu7VoSj2Bf-10" vertex="1">
          <mxGeometry width="60" height="30" as="geometry" />
        </mxCell>
        <mxCell id="TmKwgdFJiJHu7VoSj2Bf-16" value="" style="group" parent="1" vertex="1" connectable="0">
          <mxGeometry x="380" y="360" width="235" height="235" as="geometry" />
        </mxCell>
        <mxCell id="TmKwgdFJiJHu7VoSj2Bf-17" value="" style="whiteSpace=wrap;html=1;aspect=fixed;" parent="TmKwgdFJiJHu7VoSj2Bf-16" vertex="1">
          <mxGeometry width="235" height="235" as="geometry" />
        </mxCell>
        <mxCell id="TmKwgdFJiJHu7VoSj2Bf-18" value="shard2" style="shape=cylinder3;whiteSpace=wrap;html=1;boundedLbl=1;backgroundOutline=1;size=15;" parent="TmKwgdFJiJHu7VoSj2Bf-16" vertex="1">
          <mxGeometry x="87.5" y="40" width="70" height="80" as="geometry" />
        </mxCell>
        <mxCell id="TmKwgdFJiJHu7VoSj2Bf-19" value="shard2-r2" style="shape=cylinder3;whiteSpace=wrap;html=1;boundedLbl=1;backgroundOutline=1;size=15;" parent="TmKwgdFJiJHu7VoSj2Bf-16" vertex="1">
          <mxGeometry x="37.5" y="130" width="70" height="80" as="geometry" />
        </mxCell>
        <mxCell id="TmKwgdFJiJHu7VoSj2Bf-20" value="shard2-r3" style="shape=cylinder3;whiteSpace=wrap;html=1;boundedLbl=1;backgroundOutline=1;size=15;" parent="TmKwgdFJiJHu7VoSj2Bf-16" vertex="1">
          <mxGeometry x="147.5" y="130" width="70" height="80" as="geometry" />
        </mxCell>
        <mxCell id="TmKwgdFJiJHu7VoSj2Bf-21" value="shard2" style="text;html=1;align=center;verticalAlign=middle;resizable=0;points=[];autosize=1;strokeColor=none;fillColor=none;" parent="TmKwgdFJiJHu7VoSj2Bf-16" vertex="1">
          <mxGeometry width="60" height="30" as="geometry" />
        </mxCell>
        <mxCell id="TmKwgdFJiJHu7VoSj2Bf-22" value="redis" style="shape=cylinder3;whiteSpace=wrap;html=1;boundedLbl=1;backgroundOutline=1;size=15;" parent="1" vertex="1">
          <mxGeometry x="180" y="80" width="60" height="80" as="geometry" />
        </mxCell>
        <mxCell id="TmKwgdFJiJHu7VoSj2Bf-23" value="получить данные из кэша&lt;br&gt;(если они там есть)" style="text;html=1;align=left;verticalAlign=middle;resizable=0;points=[];autosize=1;strokeColor=none;fillColor=none;" parent="1" vertex="1">
          <mxGeometry x="60" y="20" width="170" height="40" as="geometry" />
        </mxCell>
        <mxCell id="TmKwgdFJiJHu7VoSj2Bf-27" value="получить данные&lt;br&gt;из БД, если в кэше нет" style="text;html=1;align=left;verticalAlign=middle;resizable=0;points=[];autosize=1;strokeColor=none;fillColor=none;" parent="1" vertex="1">
          <mxGeometry x="400" width="150" height="40" as="geometry" />
        </mxCell>
        <mxCell id="TmKwgdFJiJHu7VoSj2Bf-28" style="edgeStyle=orthogonalEdgeStyle;rounded=0;orthogonalLoop=1;jettySize=auto;html=1;exitX=0.5;exitY=0;exitDx=0;exitDy=0;entryX=1;entryY=0.5;entryDx=0;entryDy=0;entryPerimeter=0;" parent="1" source="TmKwgdFJiJHu7VoSj2Bf-5" target="TmKwgdFJiJHu7VoSj2Bf-22" edge="1">
          <mxGeometry relative="1" as="geometry" />
        </mxCell>
        <mxCell id="TmKwgdFJiJHu7VoSj2Bf-29" value="поместить&lt;br&gt;полученные из БД&lt;br&gt;данные в кэш" style="text;html=1;align=left;verticalAlign=middle;resizable=0;points=[];autosize=1;strokeColor=none;fillColor=none;" parent="1" vertex="1">
          <mxGeometry x="260" y="50" width="130" height="60" as="geometry" />
        </mxCell>
      </root>
    </mxGraphModel>
  </diagram>
  <diagram id="JpefmXaeu0tuBs5d8ppB" name="Scheme-4_scaling">
    <mxGraphModel dx="1050" dy="1790" grid="1" gridSize="10" guides="1" tooltips="1" connect="1" arrows="1" fold="1" page="1" pageScale="1" pageWidth="827" pageHeight="1169" math="0" shadow="0">
      <root>
        <mxCell id="0" />
        <mxCell id="1" parent="0" />
        <mxCell id="-JwHozp6RJ-WfhsQCtQS-1" style="edgeStyle=orthogonalEdgeStyle;rounded=0;orthogonalLoop=1;jettySize=auto;html=1;exitX=0.5;exitY=1;exitDx=0;exitDy=0;entryX=0.5;entryY=1;entryDx=0;entryDy=0;" parent="1" source="-JwHozp6RJ-WfhsQCtQS-12" target="-JwHozp6RJ-WfhsQCtQS-7" edge="1">
          <mxGeometry relative="1" as="geometry" />
        </mxCell>
        <mxCell id="-JwHozp6RJ-WfhsQCtQS-35" style="edgeStyle=orthogonalEdgeStyle;rounded=0;orthogonalLoop=1;jettySize=auto;html=1;exitX=0.75;exitY=0;exitDx=0;exitDy=0;entryX=0;entryY=0.75;entryDx=0;entryDy=0;" parent="1" source="-JwHozp6RJ-WfhsQCtQS-3" target="-JwHozp6RJ-WfhsQCtQS-32" edge="1">
          <mxGeometry relative="1" as="geometry" />
        </mxCell>
        <mxCell id="-JwHozp6RJ-WfhsQCtQS-48" style="edgeStyle=orthogonalEdgeStyle;rounded=0;orthogonalLoop=1;jettySize=auto;html=1;exitX=0.5;exitY=1;exitDx=0;exitDy=0;fillColor=#0050ef;strokeColor=#000000;strokeWidth=1;" parent="1" source="-JwHozp6RJ-WfhsQCtQS-3" target="-JwHozp6RJ-WfhsQCtQS-37" edge="1">
          <mxGeometry relative="1" as="geometry" />
        </mxCell>
        <mxCell id="-JwHozp6RJ-WfhsQCtQS-49" style="edgeStyle=orthogonalEdgeStyle;rounded=0;orthogonalLoop=1;jettySize=auto;html=1;fillColor=#0050ef;strokeColor=#000000;strokeWidth=1;exitX=0.5;exitY=1;exitDx=0;exitDy=0;" parent="1" source="-JwHozp6RJ-WfhsQCtQS-3" target="-JwHozp6RJ-WfhsQCtQS-42" edge="1">
          <mxGeometry relative="1" as="geometry">
            <mxPoint x="210" y="-40" as="sourcePoint" />
          </mxGeometry>
        </mxCell>
        <mxCell id="-JwHozp6RJ-WfhsQCtQS-54" style="edgeStyle=orthogonalEdgeStyle;rounded=0;orthogonalLoop=1;jettySize=auto;html=1;exitX=0.75;exitY=1;exitDx=0;exitDy=0;entryX=0.25;entryY=0;entryDx=0;entryDy=0;fillColor=#60a917;strokeColor=#000000;strokeWidth=1;" parent="1" source="-JwHozp6RJ-WfhsQCtQS-3" target="-JwHozp6RJ-WfhsQCtQS-6" edge="1">
          <mxGeometry relative="1" as="geometry" />
        </mxCell>
        <mxCell id="-JwHozp6RJ-WfhsQCtQS-3" value="pymongo-api" style="rounded=1;whiteSpace=wrap;html=1;" parent="1" vertex="1">
          <mxGeometry x="230" y="-120" width="120" height="60" as="geometry" />
        </mxCell>
        <mxCell id="-JwHozp6RJ-WfhsQCtQS-5" style="edgeStyle=orthogonalEdgeStyle;rounded=0;orthogonalLoop=1;jettySize=auto;html=1;exitX=1;exitY=0.5;exitDx=0;exitDy=0;entryX=0;entryY=0.5;entryDx=0;entryDy=0;" parent="1" source="-JwHozp6RJ-WfhsQCtQS-6" target="-JwHozp6RJ-WfhsQCtQS-7" edge="1">
          <mxGeometry relative="1" as="geometry" />
        </mxCell>
        <mxCell id="-JwHozp6RJ-WfhsQCtQS-6" value="mongos_router" style="rounded=0;whiteSpace=wrap;html=1;" parent="1" vertex="1">
          <mxGeometry x="330" y="220" width="120" height="60" as="geometry" />
        </mxCell>
        <mxCell id="-JwHozp6RJ-WfhsQCtQS-7" value="configSrv" style="rounded=0;whiteSpace=wrap;html=1;" parent="1" vertex="1">
          <mxGeometry x="615" y="220" width="120" height="60" as="geometry" />
        </mxCell>
        <mxCell id="-JwHozp6RJ-WfhsQCtQS-8" style="edgeStyle=orthogonalEdgeStyle;rounded=0;orthogonalLoop=1;jettySize=auto;html=1;exitX=0.5;exitY=1;exitDx=0;exitDy=0;entryX=0.5;entryY=1;entryDx=0;entryDy=0;" parent="1" source="-JwHozp6RJ-WfhsQCtQS-18" target="-JwHozp6RJ-WfhsQCtQS-7" edge="1">
          <mxGeometry relative="1" as="geometry" />
        </mxCell>
        <mxCell id="-JwHozp6RJ-WfhsQCtQS-9" style="edgeStyle=orthogonalEdgeStyle;rounded=0;orthogonalLoop=1;jettySize=auto;html=1;exitX=0.5;exitY=1;exitDx=0;exitDy=0;entryX=0.5;entryY=0;entryDx=0;entryDy=0;" parent="1" source="-JwHozp6RJ-WfhsQCtQS-6" target="-JwHozp6RJ-WfhsQCtQS-12" edge="1">
          <mxGeometry relative="1" as="geometry">
            <mxPoint x="280" y="340" as="targetPoint" />
          </mxGeometry>
        </mxCell>
        <mxCell id="-JwHozp6RJ-WfhsQCtQS-10" style="edgeStyle=orthogonalEdgeStyle;rounded=0;orthogonalLoop=1;jettySize=auto;html=1;exitX=0.5;exitY=1;exitDx=0;exitDy=0;entryX=0.5;entryY=0;entryDx=0;entryDy=0;" parent="1" source="-JwHozp6RJ-WfhsQCtQS-6" target="-JwHozp6RJ-WfhsQCtQS-18" edge="1">
          <mxGeometry relative="1" as="geometry">
            <mxPoint x="500" y="340" as="targetPoint" />
          </mxGeometry>
        </mxCell>
        <mxCell id="-JwHozp6RJ-WfhsQCtQS-11" value="" style="group" parent="1" vertex="1" connectable="0">
          <mxGeometry x="110" y="360" width="235" height="235" as="geometry" />
        </mxCell>
        <mxCell id="-JwHozp6RJ-WfhsQCtQS-12" value="" style="whiteSpace=wrap;html=1;aspect=fixed;" parent="-JwHozp6RJ-WfhsQCtQS-11" vertex="1">
          <mxGeometry width="235" height="235" as="geometry" />
        </mxCell>
        <mxCell id="-JwHozp6RJ-WfhsQCtQS-13" value="shard1" style="shape=cylinder3;whiteSpace=wrap;html=1;boundedLbl=1;backgroundOutline=1;size=15;" parent="-JwHozp6RJ-WfhsQCtQS-11" vertex="1">
          <mxGeometry x="87.5" y="40" width="70" height="80" as="geometry" />
        </mxCell>
        <mxCell id="-JwHozp6RJ-WfhsQCtQS-14" value="shard1-r2" style="shape=cylinder3;whiteSpace=wrap;html=1;boundedLbl=1;backgroundOutline=1;size=15;" parent="-JwHozp6RJ-WfhsQCtQS-11" vertex="1">
          <mxGeometry x="37.5" y="130" width="70" height="80" as="geometry" />
        </mxCell>
        <mxCell id="-JwHozp6RJ-WfhsQCtQS-15" value="shard1-r3" style="shape=cylinder3;whiteSpace=wrap;html=1;boundedLbl=1;backgroundOutline=1;size=15;" parent="-JwHozp6RJ-WfhsQCtQS-11" vertex="1">
          <mxGeometry x="147.5" y="130" width="70" height="80" as="geometry" />
        </mxCell>
        <mxCell id="-JwHozp6RJ-WfhsQCtQS-16" value="shard1" style="text;html=1;align=center;verticalAlign=middle;resizable=0;points=[];autosize=1;strokeColor=none;fillColor=none;" parent="-JwHozp6RJ-WfhsQCtQS-11" vertex="1">
          <mxGeometry width="60" height="30" as="geometry" />
        </mxCell>
        <mxCell id="-JwHozp6RJ-WfhsQCtQS-17" value="" style="group" parent="1" vertex="1" connectable="0">
          <mxGeometry x="380" y="360" width="235" height="235" as="geometry" />
        </mxCell>
        <mxCell id="-JwHozp6RJ-WfhsQCtQS-18" value="" style="whiteSpace=wrap;html=1;aspect=fixed;" parent="-JwHozp6RJ-WfhsQCtQS-17" vertex="1">
          <mxGeometry width="235" height="235" as="geometry" />
        </mxCell>
        <mxCell id="-JwHozp6RJ-WfhsQCtQS-19" value="shard2" style="shape=cylinder3;whiteSpace=wrap;html=1;boundedLbl=1;backgroundOutline=1;size=15;" parent="-JwHozp6RJ-WfhsQCtQS-17" vertex="1">
          <mxGeometry x="87.5" y="40" width="70" height="80" as="geometry" />
        </mxCell>
        <mxCell id="-JwHozp6RJ-WfhsQCtQS-20" value="shard2-r2" style="shape=cylinder3;whiteSpace=wrap;html=1;boundedLbl=1;backgroundOutline=1;size=15;" parent="-JwHozp6RJ-WfhsQCtQS-17" vertex="1">
          <mxGeometry x="37.5" y="130" width="70" height="80" as="geometry" />
        </mxCell>
        <mxCell id="-JwHozp6RJ-WfhsQCtQS-21" value="shard2-r3" style="shape=cylinder3;whiteSpace=wrap;html=1;boundedLbl=1;backgroundOutline=1;size=15;" parent="-JwHozp6RJ-WfhsQCtQS-17" vertex="1">
          <mxGeometry x="147.5" y="130" width="70" height="80" as="geometry" />
        </mxCell>
        <mxCell id="-JwHozp6RJ-WfhsQCtQS-22" value="shard2" style="text;html=1;align=center;verticalAlign=middle;resizable=0;points=[];autosize=1;strokeColor=none;fillColor=none;" parent="-JwHozp6RJ-WfhsQCtQS-17" vertex="1">
          <mxGeometry width="60" height="30" as="geometry" />
        </mxCell>
        <mxCell id="-JwHozp6RJ-WfhsQCtQS-34" style="edgeStyle=orthogonalEdgeStyle;rounded=0;orthogonalLoop=1;jettySize=auto;html=1;exitX=0.75;exitY=0;exitDx=0;exitDy=0;entryX=0;entryY=0.75;entryDx=0;entryDy=0;" parent="1" source="-JwHozp6RJ-WfhsQCtQS-28" target="-JwHozp6RJ-WfhsQCtQS-32" edge="1">
          <mxGeometry relative="1" as="geometry" />
        </mxCell>
        <mxCell id="-JwHozp6RJ-WfhsQCtQS-51" style="edgeStyle=orthogonalEdgeStyle;rounded=0;orthogonalLoop=1;jettySize=auto;html=1;exitX=0.5;exitY=1;exitDx=0;exitDy=0;fillColor=#0050ef;strokeColor=#000000;strokeWidth=1;" parent="1" source="-JwHozp6RJ-WfhsQCtQS-28" target="-JwHozp6RJ-WfhsQCtQS-37" edge="1">
          <mxGeometry relative="1" as="geometry" />
        </mxCell>
        <mxCell id="-JwHozp6RJ-WfhsQCtQS-52" style="edgeStyle=orthogonalEdgeStyle;rounded=0;orthogonalLoop=1;jettySize=auto;html=1;exitX=0.5;exitY=1;exitDx=0;exitDy=0;fillColor=#0050ef;strokeColor=#000000;strokeWidth=1;" parent="1" source="-JwHozp6RJ-WfhsQCtQS-28" target="-JwHozp6RJ-WfhsQCtQS-42" edge="1">
          <mxGeometry relative="1" as="geometry" />
        </mxCell>
        <mxCell id="-JwHozp6RJ-WfhsQCtQS-55" style="edgeStyle=orthogonalEdgeStyle;rounded=0;orthogonalLoop=1;jettySize=auto;html=1;exitX=0.25;exitY=1;exitDx=0;exitDy=0;entryX=0.75;entryY=0;entryDx=0;entryDy=0;fillColor=#60a917;strokeColor=#000000;strokeWidth=1;" parent="1" source="-JwHozp6RJ-WfhsQCtQS-28" target="-JwHozp6RJ-WfhsQCtQS-6" edge="1">
          <mxGeometry relative="1" as="geometry" />
        </mxCell>
        <mxCell id="-JwHozp6RJ-WfhsQCtQS-28" value="pymongo-api" style="rounded=1;whiteSpace=wrap;html=1;" parent="1" vertex="1">
          <mxGeometry x="470" y="-120" width="120" height="60" as="geometry" />
        </mxCell>
        <mxCell id="-JwHozp6RJ-WfhsQCtQS-31" style="edgeStyle=orthogonalEdgeStyle;rounded=0;orthogonalLoop=1;jettySize=auto;html=1;exitX=1;exitY=0.75;exitDx=0;exitDy=0;fillColor=#e51400;strokeColor=#000000;strokeWidth=1;" parent="1" source="-JwHozp6RJ-WfhsQCtQS-33" target="-JwHozp6RJ-WfhsQCtQS-28" edge="1">
          <mxGeometry relative="1" as="geometry" />
        </mxCell>
        <mxCell id="-JwHozp6RJ-WfhsQCtQS-30" style="edgeStyle=orthogonalEdgeStyle;rounded=0;orthogonalLoop=1;jettySize=auto;html=1;exitX=1;exitY=0.75;exitDx=0;exitDy=0;entryX=0.5;entryY=0;entryDx=0;entryDy=0;fillColor=#e51400;strokeColor=#000000;strokeWidth=1;" parent="1" source="-JwHozp6RJ-WfhsQCtQS-33" target="-JwHozp6RJ-WfhsQCtQS-3" edge="1">
          <mxGeometry relative="1" as="geometry" />
        </mxCell>
        <mxCell id="-JwHozp6RJ-WfhsQCtQS-32" value="consul" style="rounded=0;whiteSpace=wrap;html=1;" parent="1" vertex="1">
          <mxGeometry x="640" y="-260" width="120" height="60" as="geometry" />
        </mxCell>
        <mxCell id="-JwHozp6RJ-WfhsQCtQS-33" value="api-gateway" style="rounded=0;whiteSpace=wrap;html=1;" parent="1" vertex="1">
          <mxGeometry x="80" y="-290" width="140" height="80" as="geometry" />
        </mxCell>
        <mxCell id="-JwHozp6RJ-WfhsQCtQS-37" value="Cache node" style="sketch=0;outlineConnect=0;fontColor=#232F3E;gradientColor=none;strokeColor=#232F3E;fillColor=#ffffff;dashed=0;verticalLabelPosition=bottom;verticalAlign=top;align=center;html=1;fontSize=12;fontStyle=0;aspect=fixed;shape=mxgraph.aws4.resourceIcon;resIcon=mxgraph.aws4.cache_node;" parent="1" vertex="1">
          <mxGeometry x="180" y="30" width="60" height="60" as="geometry" />
        </mxCell>
        <mxCell id="-JwHozp6RJ-WfhsQCtQS-39" style="edgeStyle=orthogonalEdgeStyle;rounded=0;orthogonalLoop=1;jettySize=auto;html=1;exitX=1;exitY=0.5;exitDx=0;exitDy=0;entryX=0;entryY=0.25;entryDx=0;entryDy=0;fillColor=#e51400;strokeColor=#000000;strokeWidth=1;" parent="1" source="-JwHozp6RJ-WfhsQCtQS-38" target="-JwHozp6RJ-WfhsQCtQS-32" edge="1">
          <mxGeometry relative="1" as="geometry" />
        </mxCell>
        <mxCell id="-JwHozp6RJ-WfhsQCtQS-38" value="consul_kv" style="rounded=0;whiteSpace=wrap;html=1;" parent="1" vertex="1">
          <mxGeometry x="210" y="-280" width="90" height="30" as="geometry" />
        </mxCell>
        <mxCell id="-JwHozp6RJ-WfhsQCtQS-40" value="Cache node" style="sketch=0;outlineConnect=0;fontColor=#232F3E;gradientColor=none;strokeColor=#232F3E;fillColor=#ffffff;dashed=0;verticalLabelPosition=bottom;verticalAlign=top;align=center;html=1;fontSize=12;fontStyle=0;aspect=fixed;shape=mxgraph.aws4.resourceIcon;resIcon=mxgraph.aws4.cache_node;" parent="1" vertex="1">
          <mxGeometry x="210" y="70" width="60" height="60" as="geometry" />
        </mxCell>
        <mxCell id="-JwHozp6RJ-WfhsQCtQS-41" value="Cache node" style="sketch=0;outlineConnect=0;fontColor=#232F3E;gradientColor=none;strokeColor=#232F3E;fillColor=#ffffff;dashed=0;verticalLabelPosition=bottom;verticalAlign=top;align=center;html=1;fontSize=12;fontStyle=0;aspect=fixed;shape=mxgraph.aws4.resourceIcon;resIcon=mxgraph.aws4.cache_node;" parent="1" vertex="1">
          <mxGeometry x="130" y="70" width="60" height="60" as="geometry" />
        </mxCell>
        <mxCell id="-JwHozp6RJ-WfhsQCtQS-42" value="Cache node" style="sketch=0;outlineConnect=0;fontColor=#232F3E;gradientColor=none;strokeColor=#232F3E;fillColor=#ffffff;dashed=0;verticalLabelPosition=bottom;verticalAlign=top;align=center;html=1;fontSize=12;fontStyle=0;aspect=fixed;shape=mxgraph.aws4.resourceIcon;resIcon=mxgraph.aws4.cache_node;" parent="1" vertex="1">
          <mxGeometry x="570" y="30" width="60" height="60" as="geometry" />
        </mxCell>
        <mxCell id="-JwHozp6RJ-WfhsQCtQS-43" value="Cache node" style="sketch=0;outlineConnect=0;fontColor=#232F3E;gradientColor=none;strokeColor=#232F3E;fillColor=#ffffff;dashed=0;verticalLabelPosition=bottom;verticalAlign=top;align=center;html=1;fontSize=12;fontStyle=0;aspect=fixed;shape=mxgraph.aws4.resourceIcon;resIcon=mxgraph.aws4.cache_node;" parent="1" vertex="1">
          <mxGeometry x="600" y="70" width="60" height="60" as="geometry" />
        </mxCell>
        <mxCell id="-JwHozp6RJ-WfhsQCtQS-44" value="Cache node" style="sketch=0;outlineConnect=0;fontColor=#232F3E;gradientColor=none;strokeColor=#232F3E;fillColor=#ffffff;dashed=0;verticalLabelPosition=bottom;verticalAlign=top;align=center;html=1;fontSize=12;fontStyle=0;aspect=fixed;shape=mxgraph.aws4.resourceIcon;resIcon=mxgraph.aws4.cache_node;" parent="1" vertex="1">
          <mxGeometry x="520" y="70" width="60" height="60" as="geometry" />
        </mxCell>
        <mxCell id="VdoFXA1enN1li02nTqj2-3" style="edgeStyle=orthogonalEdgeStyle;rounded=0;orthogonalLoop=1;jettySize=auto;html=1;entryX=0.5;entryY=0;entryDx=0;entryDy=0;" parent="1" source="VdoFXA1enN1li02nTqj2-2" target="-JwHozp6RJ-WfhsQCtQS-33" edge="1">
          <mxGeometry relative="1" as="geometry" />
        </mxCell>
        <mxCell id="VdoFXA1enN1li02nTqj2-2" value="client (site)" style="rounded=1;whiteSpace=wrap;html=1;" parent="1" vertex="1">
          <mxGeometry x="80" y="-400" width="140" height="50" as="geometry" />
        </mxCell>
      </root>
    </mxGraphModel>
  </diagram>
  <diagram id="pxoA6V6q13XH_fvWoRZg" name="Scheme-5_CDN">
    <mxGraphModel dx="1050" dy="1790" grid="1" gridSize="10" guides="1" tooltips="1" connect="1" arrows="1" fold="1" page="1" pageScale="1" pageWidth="827" pageHeight="1169" math="0" shadow="0">
      <root>
        <mxCell id="0" />
        <mxCell id="1" parent="0" />
        <mxCell id="HNWuo-0thw8cKrJgIxUK-1" style="edgeStyle=orthogonalEdgeStyle;rounded=0;orthogonalLoop=1;jettySize=auto;html=1;exitX=0.5;exitY=1;exitDx=0;exitDy=0;entryX=0.5;entryY=1;entryDx=0;entryDy=0;" parent="1" source="HNWuo-0thw8cKrJgIxUK-14" target="HNWuo-0thw8cKrJgIxUK-9" edge="1">
          <mxGeometry relative="1" as="geometry" />
        </mxCell>
        <mxCell id="HNWuo-0thw8cKrJgIxUK-2" style="edgeStyle=orthogonalEdgeStyle;rounded=0;orthogonalLoop=1;jettySize=auto;html=1;exitX=0.75;exitY=0;exitDx=0;exitDy=0;entryX=0;entryY=0.75;entryDx=0;entryDy=0;" parent="1" source="HNWuo-0thw8cKrJgIxUK-6" target="HNWuo-0thw8cKrJgIxUK-32" edge="1">
          <mxGeometry relative="1" as="geometry" />
        </mxCell>
        <mxCell id="HNWuo-0thw8cKrJgIxUK-3" style="edgeStyle=orthogonalEdgeStyle;rounded=0;orthogonalLoop=1;jettySize=auto;html=1;exitX=0.5;exitY=1;exitDx=0;exitDy=0;fillColor=#0050ef;strokeColor=#000000;strokeWidth=1;" parent="1" source="HNWuo-0thw8cKrJgIxUK-6" target="HNWuo-0thw8cKrJgIxUK-34" edge="1">
          <mxGeometry relative="1" as="geometry" />
        </mxCell>
        <mxCell id="HNWuo-0thw8cKrJgIxUK-4" style="edgeStyle=orthogonalEdgeStyle;rounded=0;orthogonalLoop=1;jettySize=auto;html=1;fillColor=#0050ef;strokeColor=#000000;strokeWidth=1;exitX=0.5;exitY=1;exitDx=0;exitDy=0;" parent="1" source="HNWuo-0thw8cKrJgIxUK-6" target="HNWuo-0thw8cKrJgIxUK-39" edge="1">
          <mxGeometry relative="1" as="geometry">
            <mxPoint x="250" y="-40" as="sourcePoint" />
          </mxGeometry>
        </mxCell>
        <mxCell id="HNWuo-0thw8cKrJgIxUK-5" style="edgeStyle=orthogonalEdgeStyle;rounded=0;orthogonalLoop=1;jettySize=auto;html=1;exitX=0.75;exitY=1;exitDx=0;exitDy=0;entryX=0.25;entryY=0;entryDx=0;entryDy=0;fillColor=#60a917;strokeColor=#000000;strokeWidth=1;" parent="1" source="HNWuo-0thw8cKrJgIxUK-6" target="HNWuo-0thw8cKrJgIxUK-8" edge="1">
          <mxGeometry relative="1" as="geometry" />
        </mxCell>
        <mxCell id="HNWuo-0thw8cKrJgIxUK-6" value="pymongo-api" style="rounded=1;whiteSpace=wrap;html=1;" parent="1" vertex="1">
          <mxGeometry x="230" y="-120" width="120" height="60" as="geometry" />
        </mxCell>
        <mxCell id="HNWuo-0thw8cKrJgIxUK-7" style="edgeStyle=orthogonalEdgeStyle;rounded=0;orthogonalLoop=1;jettySize=auto;html=1;exitX=1;exitY=0.5;exitDx=0;exitDy=0;entryX=0;entryY=0.5;entryDx=0;entryDy=0;" parent="1" source="HNWuo-0thw8cKrJgIxUK-8" target="HNWuo-0thw8cKrJgIxUK-9" edge="1">
          <mxGeometry relative="1" as="geometry" />
        </mxCell>
        <mxCell id="HNWuo-0thw8cKrJgIxUK-8" value="mongos_router" style="rounded=0;whiteSpace=wrap;html=1;" parent="1" vertex="1">
          <mxGeometry x="330" y="220" width="120" height="60" as="geometry" />
        </mxCell>
        <mxCell id="HNWuo-0thw8cKrJgIxUK-9" value="configSrv" style="rounded=0;whiteSpace=wrap;html=1;" parent="1" vertex="1">
          <mxGeometry x="615" y="220" width="120" height="60" as="geometry" />
        </mxCell>
        <mxCell id="HNWuo-0thw8cKrJgIxUK-10" style="edgeStyle=orthogonalEdgeStyle;rounded=0;orthogonalLoop=1;jettySize=auto;html=1;exitX=0.5;exitY=1;exitDx=0;exitDy=0;entryX=0.5;entryY=1;entryDx=0;entryDy=0;" parent="1" source="HNWuo-0thw8cKrJgIxUK-20" target="HNWuo-0thw8cKrJgIxUK-9" edge="1">
          <mxGeometry relative="1" as="geometry" />
        </mxCell>
        <mxCell id="HNWuo-0thw8cKrJgIxUK-11" style="edgeStyle=orthogonalEdgeStyle;rounded=0;orthogonalLoop=1;jettySize=auto;html=1;exitX=0.5;exitY=1;exitDx=0;exitDy=0;entryX=0.5;entryY=0;entryDx=0;entryDy=0;" parent="1" source="HNWuo-0thw8cKrJgIxUK-8" target="HNWuo-0thw8cKrJgIxUK-14" edge="1">
          <mxGeometry relative="1" as="geometry">
            <mxPoint x="280" y="340" as="targetPoint" />
          </mxGeometry>
        </mxCell>
        <mxCell id="HNWuo-0thw8cKrJgIxUK-12" style="edgeStyle=orthogonalEdgeStyle;rounded=0;orthogonalLoop=1;jettySize=auto;html=1;exitX=0.5;exitY=1;exitDx=0;exitDy=0;entryX=0.5;entryY=0;entryDx=0;entryDy=0;" parent="1" source="HNWuo-0thw8cKrJgIxUK-8" target="HNWuo-0thw8cKrJgIxUK-20" edge="1">
          <mxGeometry relative="1" as="geometry">
            <mxPoint x="500" y="340" as="targetPoint" />
          </mxGeometry>
        </mxCell>
        <mxCell id="HNWuo-0thw8cKrJgIxUK-13" value="" style="group" parent="1" vertex="1" connectable="0">
          <mxGeometry x="110" y="360" width="235" height="235" as="geometry" />
        </mxCell>
        <mxCell id="HNWuo-0thw8cKrJgIxUK-14" value="" style="whiteSpace=wrap;html=1;aspect=fixed;" parent="HNWuo-0thw8cKrJgIxUK-13" vertex="1">
          <mxGeometry width="235" height="235" as="geometry" />
        </mxCell>
        <mxCell id="HNWuo-0thw8cKrJgIxUK-15" value="shard1-r1" style="shape=cylinder3;whiteSpace=wrap;html=1;boundedLbl=1;backgroundOutline=1;size=15;" parent="HNWuo-0thw8cKrJgIxUK-13" vertex="1">
          <mxGeometry x="87.5" y="40" width="70" height="80" as="geometry" />
        </mxCell>
        <mxCell id="HNWuo-0thw8cKrJgIxUK-16" value="shard1-r2" style="shape=cylinder3;whiteSpace=wrap;html=1;boundedLbl=1;backgroundOutline=1;size=15;" parent="HNWuo-0thw8cKrJgIxUK-13" vertex="1">
          <mxGeometry x="37.5" y="130" width="70" height="80" as="geometry" />
        </mxCell>
        <mxCell id="HNWuo-0thw8cKrJgIxUK-17" value="shard1-r3" style="shape=cylinder3;whiteSpace=wrap;html=1;boundedLbl=1;backgroundOutline=1;size=15;" parent="HNWuo-0thw8cKrJgIxUK-13" vertex="1">
          <mxGeometry x="147.5" y="130" width="70" height="80" as="geometry" />
        </mxCell>
        <mxCell id="HNWuo-0thw8cKrJgIxUK-18" value="shard1" style="text;html=1;align=center;verticalAlign=middle;resizable=0;points=[];autosize=1;strokeColor=none;fillColor=none;" parent="HNWuo-0thw8cKrJgIxUK-13" vertex="1">
          <mxGeometry width="60" height="30" as="geometry" />
        </mxCell>
        <mxCell id="HNWuo-0thw8cKrJgIxUK-19" value="" style="group" parent="1" vertex="1" connectable="0">
          <mxGeometry x="380" y="360" width="235" height="235" as="geometry" />
        </mxCell>
        <mxCell id="HNWuo-0thw8cKrJgIxUK-20" value="" style="whiteSpace=wrap;html=1;aspect=fixed;" parent="HNWuo-0thw8cKrJgIxUK-19" vertex="1">
          <mxGeometry width="235" height="235" as="geometry" />
        </mxCell>
        <mxCell id="HNWuo-0thw8cKrJgIxUK-21" value="shard2-r1" style="shape=cylinder3;whiteSpace=wrap;html=1;boundedLbl=1;backgroundOutline=1;size=15;" parent="HNWuo-0thw8cKrJgIxUK-19" vertex="1">
          <mxGeometry x="87.5" y="40" width="70" height="80" as="geometry" />
        </mxCell>
        <mxCell id="HNWuo-0thw8cKrJgIxUK-22" value="shard2-r2" style="shape=cylinder3;whiteSpace=wrap;html=1;boundedLbl=1;backgroundOutline=1;size=15;" parent="HNWuo-0thw8cKrJgIxUK-19" vertex="1">
          <mxGeometry x="37.5" y="130" width="70" height="80" as="geometry" />
        </mxCell>
        <mxCell id="HNWuo-0thw8cKrJgIxUK-23" value="shard2-r3" style="shape=cylinder3;whiteSpace=wrap;html=1;boundedLbl=1;backgroundOutline=1;size=15;" parent="HNWuo-0thw8cKrJgIxUK-19" vertex="1">
          <mxGeometry x="147.5" y="130" width="70" height="80" as="geometry" />
        </mxCell>
        <mxCell id="HNWuo-0thw8cKrJgIxUK-24" value="shard2" style="text;html=1;align=center;verticalAlign=middle;resizable=0;points=[];autosize=1;strokeColor=none;fillColor=none;" parent="HNWuo-0thw8cKrJgIxUK-19" vertex="1">
          <mxGeometry width="60" height="30" as="geometry" />
        </mxCell>
        <mxCell id="HNWuo-0thw8cKrJgIxUK-25" style="edgeStyle=orthogonalEdgeStyle;rounded=0;orthogonalLoop=1;jettySize=auto;html=1;exitX=0.75;exitY=0;exitDx=0;exitDy=0;entryX=0;entryY=0.75;entryDx=0;entryDy=0;" parent="1" source="HNWuo-0thw8cKrJgIxUK-29" target="HNWuo-0thw8cKrJgIxUK-32" edge="1">
          <mxGeometry relative="1" as="geometry" />
        </mxCell>
        <mxCell id="HNWuo-0thw8cKrJgIxUK-26" style="edgeStyle=orthogonalEdgeStyle;rounded=0;orthogonalLoop=1;jettySize=auto;html=1;exitX=0.5;exitY=1;exitDx=0;exitDy=0;fillColor=#0050ef;strokeColor=#000000;strokeWidth=1;" parent="1" source="HNWuo-0thw8cKrJgIxUK-29" target="HNWuo-0thw8cKrJgIxUK-34" edge="1">
          <mxGeometry relative="1" as="geometry" />
        </mxCell>
        <mxCell id="HNWuo-0thw8cKrJgIxUK-27" style="edgeStyle=orthogonalEdgeStyle;rounded=0;orthogonalLoop=1;jettySize=auto;html=1;exitX=0.5;exitY=1;exitDx=0;exitDy=0;fillColor=#0050ef;strokeColor=#000000;strokeWidth=1;" parent="1" source="HNWuo-0thw8cKrJgIxUK-29" target="HNWuo-0thw8cKrJgIxUK-39" edge="1">
          <mxGeometry relative="1" as="geometry" />
        </mxCell>
        <mxCell id="HNWuo-0thw8cKrJgIxUK-28" style="edgeStyle=orthogonalEdgeStyle;rounded=0;orthogonalLoop=1;jettySize=auto;html=1;exitX=0.25;exitY=1;exitDx=0;exitDy=0;entryX=0.75;entryY=0;entryDx=0;entryDy=0;fillColor=#60a917;strokeColor=#000000;strokeWidth=1;" parent="1" source="HNWuo-0thw8cKrJgIxUK-29" target="HNWuo-0thw8cKrJgIxUK-8" edge="1">
          <mxGeometry relative="1" as="geometry" />
        </mxCell>
        <mxCell id="HNWuo-0thw8cKrJgIxUK-29" value="pymongo-api" style="rounded=1;whiteSpace=wrap;html=1;" parent="1" vertex="1">
          <mxGeometry x="470" y="-120" width="120" height="60" as="geometry" />
        </mxCell>
        <mxCell id="HNWuo-0thw8cKrJgIxUK-30" style="edgeStyle=orthogonalEdgeStyle;rounded=0;orthogonalLoop=1;jettySize=auto;html=1;exitX=1;exitY=0.75;exitDx=0;exitDy=0;fillColor=#e51400;strokeColor=#000000;strokeWidth=1;" parent="1" source="HNWuo-0thw8cKrJgIxUK-33" target="HNWuo-0thw8cKrJgIxUK-29" edge="1">
          <mxGeometry relative="1" as="geometry" />
        </mxCell>
        <mxCell id="HNWuo-0thw8cKrJgIxUK-31" style="edgeStyle=orthogonalEdgeStyle;rounded=0;orthogonalLoop=1;jettySize=auto;html=1;exitX=1;exitY=0.75;exitDx=0;exitDy=0;entryX=0.5;entryY=0;entryDx=0;entryDy=0;fillColor=#e51400;strokeColor=#000000;strokeWidth=1;" parent="1" source="HNWuo-0thw8cKrJgIxUK-33" target="HNWuo-0thw8cKrJgIxUK-6" edge="1">
          <mxGeometry relative="1" as="geometry" />
        </mxCell>
        <mxCell id="HNWuo-0thw8cKrJgIxUK-32" value="consul" style="rounded=0;whiteSpace=wrap;html=1;" parent="1" vertex="1">
          <mxGeometry x="640" y="-260" width="120" height="60" as="geometry" />
        </mxCell>
        <mxCell id="HNWuo-0thw8cKrJgIxUK-33" value="api-gateway" style="rounded=0;whiteSpace=wrap;html=1;" parent="1" vertex="1">
          <mxGeometry x="80" y="-290" width="140" height="80" as="geometry" />
        </mxCell>
        <mxCell id="HNWuo-0thw8cKrJgIxUK-34" value="Cache node" style="sketch=0;outlineConnect=0;fontColor=#232F3E;gradientColor=none;strokeColor=#232F3E;fillColor=#ffffff;dashed=0;verticalLabelPosition=bottom;verticalAlign=top;align=center;html=1;fontSize=12;fontStyle=0;aspect=fixed;shape=mxgraph.aws4.resourceIcon;resIcon=mxgraph.aws4.cache_node;" parent="1" vertex="1">
          <mxGeometry x="180" y="30" width="60" height="60" as="geometry" />
        </mxCell>
        <mxCell id="HNWuo-0thw8cKrJgIxUK-35" style="edgeStyle=orthogonalEdgeStyle;rounded=0;orthogonalLoop=1;jettySize=auto;html=1;exitX=1;exitY=0.5;exitDx=0;exitDy=0;entryX=0;entryY=0.25;entryDx=0;entryDy=0;fillColor=#e51400;strokeColor=#000000;strokeWidth=1;" parent="1" source="HNWuo-0thw8cKrJgIxUK-36" target="HNWuo-0thw8cKrJgIxUK-32" edge="1">
          <mxGeometry relative="1" as="geometry" />
        </mxCell>
        <mxCell id="HNWuo-0thw8cKrJgIxUK-36" value="consul_kv" style="rounded=0;whiteSpace=wrap;html=1;" parent="1" vertex="1">
          <mxGeometry x="210" y="-280" width="90" height="30" as="geometry" />
        </mxCell>
        <mxCell id="HNWuo-0thw8cKrJgIxUK-37" value="Cache node" style="sketch=0;outlineConnect=0;fontColor=#232F3E;gradientColor=none;strokeColor=#232F3E;fillColor=#ffffff;dashed=0;verticalLabelPosition=bottom;verticalAlign=top;align=center;html=1;fontSize=12;fontStyle=0;aspect=fixed;shape=mxgraph.aws4.resourceIcon;resIcon=mxgraph.aws4.cache_node;" parent="1" vertex="1">
          <mxGeometry x="210" y="70" width="60" height="60" as="geometry" />
        </mxCell>
        <mxCell id="HNWuo-0thw8cKrJgIxUK-38" value="Cache node" style="sketch=0;outlineConnect=0;fontColor=#232F3E;gradientColor=none;strokeColor=#232F3E;fillColor=#ffffff;dashed=0;verticalLabelPosition=bottom;verticalAlign=top;align=center;html=1;fontSize=12;fontStyle=0;aspect=fixed;shape=mxgraph.aws4.resourceIcon;resIcon=mxgraph.aws4.cache_node;" parent="1" vertex="1">
          <mxGeometry x="130" y="70" width="60" height="60" as="geometry" />
        </mxCell>
        <mxCell id="HNWuo-0thw8cKrJgIxUK-39" value="Cache node" style="sketch=0;outlineConnect=0;fontColor=#232F3E;gradientColor=none;strokeColor=#232F3E;fillColor=#ffffff;dashed=0;verticalLabelPosition=bottom;verticalAlign=top;align=center;html=1;fontSize=12;fontStyle=0;aspect=fixed;shape=mxgraph.aws4.resourceIcon;resIcon=mxgraph.aws4.cache_node;" parent="1" vertex="1">
          <mxGeometry x="570" y="30" width="60" height="60" as="geometry" />
        </mxCell>
        <mxCell id="HNWuo-0thw8cKrJgIxUK-40" value="Cache node" style="sketch=0;outlineConnect=0;fontColor=#232F3E;gradientColor=none;strokeColor=#232F3E;fillColor=#ffffff;dashed=0;verticalLabelPosition=bottom;verticalAlign=top;align=center;html=1;fontSize=12;fontStyle=0;aspect=fixed;shape=mxgraph.aws4.resourceIcon;resIcon=mxgraph.aws4.cache_node;" parent="1" vertex="1">
          <mxGeometry x="600" y="70" width="60" height="60" as="geometry" />
        </mxCell>
        <mxCell id="HNWuo-0thw8cKrJgIxUK-41" value="Cache node" style="sketch=0;outlineConnect=0;fontColor=#232F3E;gradientColor=none;strokeColor=#232F3E;fillColor=#ffffff;dashed=0;verticalLabelPosition=bottom;verticalAlign=top;align=center;html=1;fontSize=12;fontStyle=0;aspect=fixed;shape=mxgraph.aws4.resourceIcon;resIcon=mxgraph.aws4.cache_node;" parent="1" vertex="1">
          <mxGeometry x="520" y="70" width="60" height="60" as="geometry" />
        </mxCell>
        <mxCell id="Uquw7NznWCxm7U2Aycea-1" style="edgeStyle=orthogonalEdgeStyle;rounded=0;orthogonalLoop=1;jettySize=auto;html=1;entryX=0.5;entryY=0;entryDx=0;entryDy=0;" parent="1" source="Uquw7NznWCxm7U2Aycea-2" target="HNWuo-0thw8cKrJgIxUK-33" edge="1">
          <mxGeometry relative="1" as="geometry">
            <mxPoint x="150" y="-290" as="targetPoint" />
          </mxGeometry>
        </mxCell>
        <mxCell id="Uquw7NznWCxm7U2Aycea-2" value="client (site)" style="rounded=1;whiteSpace=wrap;html=1;" parent="1" vertex="1">
          <mxGeometry x="80" y="-400" width="140" height="50" as="geometry" />
        </mxCell>
        <mxCell id="Uquw7NznWCxm7U2Aycea-3" value="CDN" style="image;aspect=fixed;html=1;points=[];align=center;fontSize=12;image=img/lib/azure2/app_services/CDN_Profiles.svg;" parent="1" vertex="1">
          <mxGeometry x="820" y="50" width="95" height="55.88" as="geometry" />
        </mxCell>
        <object placeholders="1" c4Name="Cloud" c4Type="SystemScopeBoundary" c4Application="" label="&lt;font style=&quot;font-size: 16px&quot;&gt;&lt;b&gt;&lt;div style=&quot;text-align: left&quot;&gt;%c4Name%&lt;/div&gt;&lt;/b&gt;&lt;/font&gt;&lt;div style=&quot;text-align: left&quot;&gt;[%c4Application%]&lt;/div&gt;" id="Uquw7NznWCxm7U2Aycea-4">
          <mxCell style="rounded=1;fontSize=11;whiteSpace=wrap;html=1;dashed=1;arcSize=20;fillColor=none;strokeColor=#666666;fontColor=#333333;labelBackgroundColor=none;align=left;verticalAlign=bottom;labelBorderColor=none;spacingTop=0;spacing=10;dashPattern=8 4;metaEdit=1;rotatable=0;perimeter=rectanglePerimeter;noLabel=0;labelPadding=0;allowArrows=0;connectable=0;expand=0;recursiveResize=0;editable=1;pointerEvents=0;absoluteArcSize=1;points=[[0.25,0,0],[0.5,0,0],[0.75,0,0],[1,0.25,0],[1,0.5,0],[1,0.75,0],[0.75,1,0],[0.5,1,0],[0.25,1,0],[0,0.75,0],[0,0.5,0],[0,0.25,0]];" parent="1" vertex="1">
            <mxGeometry x="40" y="10" width="910" height="680" as="geometry" />
          </mxCell>
        </object>
        <mxCell id="Uquw7NznWCxm7U2Aycea-5" style="edgeStyle=orthogonalEdgeStyle;rounded=0;orthogonalLoop=1;jettySize=auto;html=1;entryX=0.621;entryY=0.058;entryDx=0;entryDy=0;exitX=1;exitY=0.5;exitDx=0;exitDy=0;entryPerimeter=0;" parent="1" source="Uquw7NznWCxm7U2Aycea-2" target="Uquw7NznWCxm7U2Aycea-3" edge="1">
          <mxGeometry relative="1" as="geometry">
            <mxPoint x="160" y="-280" as="targetPoint" />
            <mxPoint x="160" y="-340" as="sourcePoint" />
          </mxGeometry>
        </mxCell>
      </root>
    </mxGraphModel>
  </diagram>
</mxfile>
